<?xml version="1.0" encoding="UTF-8"?>
<svg id="Layer_1" data-name="Layer 1" xmlns="http://www.w3.org/2000/svg" version="1.1" viewBox="0 0 96 65.7">
  <defs>
    <style>
      .cls-1 {
        fill: #000;
        stroke-width: 0px;
      }
    </style>
  </defs>
  <path class="cls-1" d="M36.6,28.6c2.2,2.2,2.2,5.8,0,8.1l-24.6,24.6c-1.1,1.1-2.6,1.7-4,1.7s-2.9-.6-4-1.7c-2.2-2.2-2.2-5.8,0-8.1l20.6-20.6L4,12.1c-2.2-2.2-2.2-5.9,0-8.1,2.2-2.2,5.8-2.2,8.1,0l24.6,24.6ZM88,2.3c-3.2,0-5.7,2.6-5.7,5.7v49.2c0,3.2,2.6,5.7,5.7,5.7s5.7-2.6,5.7-5.7V8c0-3.2-2.6-5.7-5.7-5.7ZM60.3,2.3c-3.2,0-5.7,2.6-5.7,5.7v49.2c0,3.2,2.6,5.7,5.7,5.7s5.7-2.6,5.7-5.7V8c0-3.2-2.6-5.7-5.7-5.7Z"/>
</svg>